<svg xmlns="http://www.w3.org/2000/svg" viewBox="0 0 128 128">
  <defs>
    <linearGradient id="bg" x1="22" y1="10" x2="106" y2="118" gradientUnits="userSpaceOnUse">
      <stop stop-color="#fff8bd"/>
      <stop offset=".58" stop-color="#ffd85f"/>
      <stop offset="1" stop-color="#f4b23b"/>
    </linearGradient>
    <linearGradient id="paper" x1="28" y1="34" x2="100" y2="112" gradientUnits="userSpaceOnUse">
      <stop stop-color="#fffdf2"/>
      <stop offset="1" stop-color="#f4efe0"/>
    </linearGradient>
    <filter id="shadow" x="-20%" y="-20%" width="140%" height="150%" color-interpolation-filters="sRGB">
      <feDropShadow dx="0" dy="9" stdDeviation="8" flood-color="#8d651a" flood-opacity=".28"/>
      <feDropShadow dx="0" dy="1" stdDeviation="1" flood-color="#ffffff" flood-opacity=".32"/>
    </filter>
  </defs>
  <rect width="128" height="128" rx="28" fill="#181818"/>
  <path d="M24 38h80v57c0 8.8-7.2 16-16 16H40c-8.8 0-16-7.2-16-16V38Z" fill="url(#paper)" filter="url(#shadow)"/>
  <path d="M24 32c0-8.8 7.2-16 16-16h48c8.8 0 16 7.2 16 16v12H24V32Z" fill="#ffd956"/>
  <path d="M38 60h52M38 75h52M38 90h36" stroke="#9a8c6a" stroke-width="5" stroke-linecap="round" opacity=".72"/>
  <path d="M40 16h48c8.8 0 16 7.2 16 16v2H24v-2c0-8.8 7.2-16 16-16Z" fill="#fff7aa" opacity=".42"/>
</svg>
